# xmcd
#
# Track frame offsets: 
#        150
#        16750
#        27687
#        42042
#        59875
#        74549
#        95004
#        110364
#        124193
#        141222
#        155312
#        173327
#        193019
#
# Disc length: 2753 seconds
#
# Revision: 0
# Processed by: cddbd v1.5.2PL0 Copyright (c) Steve Scherf et al.
# Submitted via: ExactAudioCopy v0.99pb3
#
DISCID=b40abf0d
DTITLE=School Boy Humor - School Boy Humor
DYEAR=2009
DGENRE=Pop Punk
TTITLE0=Paint Me Envy
TTITLE1=Camera Shy
TTITLE2=Turn It Up
TTITLE3=Please Stand Up
TTITLE4=Good To Meet You
TTITLE5=This Is Your Life
TTITLE6=Cheating Myself
TTITLE7=Don't Look Back
TTITLE8=This World
TTITLE9=Everyone Who Breathes
TTITLE10=Let's Talk Trust
TTITLE11=What If
TTITLE12=Realize (Cover)
EXTD=
EXTT0=
EXTT1=
EXTT2=
EXTT3=
EXTT4=
EXTT5=
EXTT6=
EXTT7=
EXTT8=
EXTT9=
EXTT10=
EXTT11=
EXTT12=
PLAYORDER=
